<svg xmlns="http://www.w3.org/2000/svg" width="636" height="636" viewBox="0 0 636 636" version="1.1">
	<path d="M 0 318.002 L 0 636.003 318.250 635.752 L 636.500 635.500 636.752 317.750 L 637.003 0 318.502 0 L 0 0 0 318.002 M 0.494 318.500 C 0.494 493.400, 0.609 564.801, 0.750 477.169 C 0.891 389.537, 0.891 246.437, 0.750 159.169 C 0.609 71.901, 0.494 143.600, 0.494 318.500 M 182.806 82.200 C 181.090 82.792, 180.309 83.641, 180.653 84.539 C 180.951 85.314, 180.476 86.667, 179.597 87.546 C 178.719 88.424, 177.993 90.123, 177.985 91.321 C 177.969 93.599, 174.055 108.994, 143.999 225 C 133.952 263.775, 121.350 312.600, 115.994 333.500 C 110.638 354.400, 101.925 388.309, 96.633 408.853 C 91.340 429.398, 87.332 446.723, 87.727 447.353 C 88.121 447.984, 88.532 449.085, 88.641 449.800 C 88.898 451.499, 90.995 454, 92.163 454 C 92.668 454, 94.300 454.873, 95.790 455.940 C 98.251 457.701, 108.431 460.897, 123 464.483 C 130.225 466.262, 161.851 473.762, 169.500 475.511 C 184.536 478.949, 274.976 501.843, 302 509.052 C 328.790 516.198, 336.654 518.280, 364.500 525.596 C 378.250 529.208, 395.125 533.722, 402 535.625 C 414.474 539.079, 424.009 541.585, 435.664 544.473 C 439.054 545.313, 444.812 546, 448.460 546 C 454.187 546, 455.429 545.662, 457.574 543.517 C 460.849 540.241, 463.776 533.244, 464.587 526.746 C 464.947 523.861, 465.846 520.150, 466.584 518.500 C 468.331 514.593, 474 494.777, 474 492.576 C 474 491.641, 474.633 488.766, 475.407 486.188 C 476.181 483.610, 477.815 477.225, 479.038 472 C 480.261 466.775, 481.649 462.009, 482.122 461.408 C 482.596 460.807, 482.756 460.089, 482.479 459.813 C 481.882 459.215, 486.401 441.847, 492.059 423 C 494.288 415.575, 497.188 405.900, 498.503 401.500 C 502.754 387.281, 511.940 350.711, 511.457 349.930 C 511.199 349.512, 511.365 349.020, 511.827 348.835 C 512.559 348.543, 529.670 281.908, 529.183 281.249 C 529.081 281.111, 529.898 279.318, 530.998 277.264 C 532.099 275.210, 533 272.713, 533 271.714 C 533 269.770, 544.581 223.758, 550.323 202.887 C 553.303 192.054, 553.666 189.594, 552.892 185.449 C 552.231 181.913, 552.315 180.424, 553.205 179.873 C 554.107 179.316, 553.940 178.591, 552.555 177.061 C 551.043 175.390, 549.483 175, 544.313 175 C 536.650 175, 472.304 158.991, 297 113.468 C 207.319 90.180, 192.974 86.284, 191.191 84.730 C 188.012 81.961, 185.604 81.234, 182.806 82.200 M 206.813 82.683 C 207.534 82.972, 208.397 82.936, 208.729 82.604 C 209.061 82.272, 208.471 82.036, 207.417 82.079 C 206.252 82.127, 206.015 82.364, 206.813 82.683 M 219.500 86 C 220.600 86.473, 222.175 86.859, 223 86.859 C 223.945 86.859, 223.761 86.542, 222.500 86 C 221.400 85.527, 219.825 85.141, 219 85.141 C 218.055 85.141, 218.239 85.458, 219.500 86 M 229.500 88.570 C 232.250 89.335, 234.950 89.923, 235.500 89.876 C 237.192 89.731, 228.629 87.153, 226.500 87.166 C 225.400 87.173, 226.750 87.805, 229.500 88.570 M 249.813 93.683 C 250.534 93.972, 251.397 93.936, 251.729 93.604 C 252.061 93.272, 251.471 93.036, 250.417 93.079 C 249.252 93.127, 249.015 93.364, 249.813 93.683 M 253.813 94.683 C 254.534 94.972, 255.397 94.936, 255.729 94.604 C 256.061 94.272, 255.471 94.036, 254.417 94.079 C 253.252 94.127, 253.015 94.364, 253.813 94.683 M 257.813 95.683 C 258.534 95.972, 259.397 95.936, 259.729 95.604 C 260.061 95.272, 259.471 95.036, 258.417 95.079 C 257.252 95.127, 257.015 95.364, 257.813 95.683 M 280.813 101.683 C 281.534 101.972, 282.397 101.936, 282.729 101.604 C 283.061 101.272, 282.471 101.036, 281.417 101.079 C 280.252 101.127, 280.015 101.364, 280.813 101.683 M 284.813 102.683 C 285.534 102.972, 286.397 102.936, 286.729 102.604 C 287.061 102.272, 286.471 102.036, 285.417 102.079 C 284.252 102.127, 284.015 102.364, 284.813 102.683 M 288.813 103.683 C 289.534 103.972, 290.397 103.936, 290.729 103.604 C 291.061 103.272, 290.471 103.036, 289.417 103.079 C 288.252 103.127, 288.015 103.364, 288.813 103.683 M 307.813 108.683 C 308.534 108.972, 309.397 108.936, 309.729 108.604 C 310.061 108.272, 309.471 108.036, 308.417 108.079 C 307.252 108.127, 307.015 108.364, 307.813 108.683 M 311.813 109.683 C 312.534 109.972, 313.397 109.936, 313.729 109.604 C 314.061 109.272, 313.471 109.036, 312.417 109.079 C 311.252 109.127, 311.015 109.364, 311.813 109.683 M 315.813 110.683 C 316.534 110.972, 317.397 110.936, 317.729 110.604 C 318.061 110.272, 317.471 110.036, 316.417 110.079 C 315.252 110.127, 315.015 110.364, 315.813 110.683 M 195.825 131.594 L 191.362 149.187 193.848 150.132 C 195.513 150.766, 196.553 150.724, 196.997 150.005 C 197.361 149.416, 199.150 142.648, 200.973 134.967 C 203.110 125.956, 204.743 121, 205.574 121 C 207.160 121, 514.338 200.004, 514.887 200.553 C 515.104 200.770, 507.349 230.772, 497.654 267.224 C 487.960 303.676, 476.227 347.900, 471.581 365.500 C 464.736 391.428, 454.700 429.406, 434.914 504.250 C 434.369 506.312, 433.299 508, 432.536 508 C 431.774 508, 386.679 496.546, 332.325 482.547 C 277.971 468.547, 209.973 451.057, 181.217 443.680 C 152.461 436.303, 128.632 429.966, 128.263 429.597 C 127.278 428.612, 133.975 402.183, 135.339 401.673 C 135.978 401.434, 135.185 400.716, 133.578 400.078 C 129.806 398.581, 128.507 399.144, 128.238 402.391 C 128.119 403.836, 126.421 411.370, 124.467 419.132 C 122.512 426.895, 121.045 433.371, 121.206 433.524 C 121.368 433.676, 138.150 438.092, 158.500 443.337 C 178.850 448.581, 216.425 458.282, 242 464.894 C 323.874 486.062, 437.354 514.980, 437.587 514.736 C 437.711 514.606, 442.150 498.075, 447.452 478 C 452.754 457.925, 458.848 435.200, 460.994 427.500 C 473.538 382.490, 522.183 196.850, 521.589 196.255 C 520.237 194.904, 205.700 114, 201.798 114 C 200.677 114, 199.137 118.533, 195.825 131.594 M 338.813 116.683 C 339.534 116.972, 340.397 116.936, 340.729 116.604 C 341.061 116.272, 340.471 116.036, 339.417 116.079 C 338.252 116.127, 338.015 116.364, 338.813 116.683 M 342.813 117.683 C 343.534 117.972, 344.397 117.936, 344.729 117.604 C 345.061 117.272, 344.471 117.036, 343.417 117.079 C 342.252 117.127, 342.015 117.364, 342.813 117.683 M 346.813 118.683 C 347.534 118.972, 348.397 118.936, 348.729 118.604 C 349.061 118.272, 348.471 118.036, 347.417 118.079 C 346.252 118.127, 346.015 118.364, 346.813 118.683 M 366.813 123.683 C 367.534 123.972, 368.397 123.936, 368.729 123.604 C 369.061 123.272, 368.471 123.036, 367.417 123.079 C 366.252 123.127, 366.015 123.364, 366.813 123.683 M 373.813 125.683 C 374.534 125.972, 375.397 125.936, 375.729 125.604 C 376.061 125.272, 375.471 125.036, 374.417 125.079 C 373.252 125.127, 373.015 125.364, 373.813 125.683 M 377.813 126.683 C 378.534 126.972, 379.397 126.936, 379.729 126.604 C 380.061 126.272, 379.471 126.036, 378.417 126.079 C 377.252 126.127, 377.015 126.364, 377.813 126.683 M 393.813 130.683 C 394.534 130.972, 395.397 130.936, 395.729 130.604 C 396.061 130.272, 395.471 130.036, 394.417 130.079 C 393.252 130.127, 393.015 130.364, 393.813 130.683 M 397.813 131.683 C 398.534 131.972, 399.397 131.936, 399.729 131.604 C 400.061 131.272, 399.471 131.036, 398.417 131.079 C 397.252 131.127, 397.015 131.364, 397.813 131.683 M 401.813 132.683 C 402.534 132.972, 403.397 132.936, 403.729 132.604 C 404.061 132.272, 403.471 132.036, 402.417 132.079 C 401.252 132.127, 401.015 132.364, 401.813 132.683 M 424.813 138.683 C 425.534 138.972, 426.397 138.936, 426.729 138.604 C 427.061 138.272, 426.471 138.036, 425.417 138.079 C 424.252 138.127, 424.015 138.364, 424.813 138.683 M 428.813 139.683 C 429.534 139.972, 430.397 139.936, 430.729 139.604 C 431.061 139.272, 430.471 139.036, 429.417 139.079 C 428.252 139.127, 428.015 139.364, 428.813 139.683 M 432.813 140.683 C 433.534 140.972, 434.397 140.936, 434.729 140.604 C 435.061 140.272, 434.471 140.036, 433.417 140.079 C 432.252 140.127, 432.015 140.364, 432.813 140.683 M 455.813 146.683 C 456.534 146.972, 457.397 146.936, 457.729 146.604 C 458.061 146.272, 457.471 146.036, 456.417 146.079 C 455.252 146.127, 455.015 146.364, 455.813 146.683 M 459.813 147.683 C 460.534 147.972, 461.397 147.936, 461.729 147.604 C 462.061 147.272, 461.471 147.036, 460.417 147.079 C 459.252 147.127, 459.015 147.364, 459.813 147.683 M 463.813 148.683 C 464.534 148.972, 465.397 148.936, 465.729 148.604 C 466.061 148.272, 465.471 148.036, 464.417 148.079 C 463.252 148.127, 463.015 148.364, 463.813 148.683 M 183.017 151.250 C 182.500 152.488, 178.229 169.209, 173.527 188.408 C 165.595 220.789, 165.094 223.446, 166.593 225.102 C 167.482 226.085, 169.013 227.026, 169.995 227.194 C 171.601 227.469, 170.682 231.984, 160.869 272 C 147.868 325.016, 148.475 322.977, 145.672 323.079 C 143.818 323.146, 146.642 324.361, 153.675 326.519 C 154.559 326.790, 154.506 328.187, 153.463 332.140 C 152.271 336.660, 151.393 341.388, 148.388 359.470 C 148.116 361.103, 147.671 362.663, 147.398 362.935 C 146.967 363.367, 140.393 361.763, 133.250 359.485 C 131.952 359.070, 131 359.184, 131 359.753 C 131 360.296, 133.137 361.295, 135.750 361.974 C 138.363 362.652, 141.898 363.625, 143.607 364.134 L 146.713 365.060 145.431 373.068 C 143.694 383.918, 140.045 399.235, 138.856 400.671 C 138.160 401.512, 138.406 401.707, 139.729 401.361 C 141.212 400.973, 142.589 396.842, 146.787 380.189 C 149.655 368.810, 153.802 352.554, 156.001 344.065 C 158.201 335.575, 160 328.361, 160 328.034 C 160 327.706, 158.650 326.929, 157 326.306 C 155.096 325.587, 154.032 324.503, 154.089 323.337 C 154.138 322.327, 159.425 300.800, 165.839 275.500 L 177.500 229.500 181.227 229.191 C 184.586 228.913, 185.053 228.517, 185.947 225.191 C 188.476 215.784, 203 155.370, 203 154.256 C 203 153.536, 201.759 153, 200.094 153 C 197.676 153, 197.276 153.338, 197.712 155.007 C 198.001 156.111, 197.756 158.248, 197.169 159.757 C 196.582 161.266, 194.658 168.061, 192.894 174.858 L 189.686 187.216 184.831 186.572 C 178.209 185.693, 177 185.111, 177 182.798 C 177 179.482, 183.944 151.773, 185.134 150.339 C 185.952 149.353, 185.943 149, 185.101 149 C 184.472 149, 183.534 150.012, 183.017 151.250 M 482.813 153.683 C 483.534 153.972, 484.397 153.936, 484.729 153.604 C 485.061 153.272, 484.471 153.036, 483.417 153.079 C 482.252 153.127, 482.015 153.364, 482.813 153.683 M 486.813 154.683 C 487.534 154.972, 488.397 154.936, 488.729 154.604 C 489.061 154.272, 488.471 154.036, 487.417 154.079 C 486.252 154.127, 486.015 154.364, 486.813 154.683 M 490.813 155.683 C 491.534 155.972, 492.397 155.936, 492.729 155.604 C 493.061 155.272, 492.471 155.036, 491.417 155.079 C 490.252 155.127, 490.015 155.364, 490.813 155.683 M 513.813 161.683 C 514.534 161.972, 515.397 161.936, 515.729 161.604 C 516.061 161.272, 515.471 161.036, 514.417 161.079 C 513.252 161.127, 513.015 161.364, 513.813 161.683 M 517.813 162.683 C 518.534 162.972, 519.397 162.936, 519.729 162.604 C 520.061 162.272, 519.471 162.036, 518.417 162.079 C 517.252 162.127, 517.015 162.364, 517.813 162.683 M 173.981 192.750 C 173.342 195.912, 171.682 203.225, 170.290 209 C 166.698 223.911, 166.564 223.127, 172.975 224.757 C 176.780 225.725, 178.560 225.820, 178.811 225.068 C 179.009 224.474, 179.539 224.215, 179.988 224.493 C 180.702 224.934, 182.832 216.799, 187.188 197 C 187.854 193.975, 188.788 191.230, 189.265 190.900 C 190.158 190.282, 179.631 187, 176.755 187 C 175.592 187, 174.818 188.605, 173.981 192.750 M 550 191 C 550 191.550, 550.450 192, 551 192 C 551.550 192, 552 191.550, 552 191 C 552 190.450, 551.550 190, 551 190 C 550.450 190, 550 190.450, 550 191 M 309 194.147 C 299.210 194.869, 289.091 196.551, 288.076 197.624 C 287.759 197.959, 288.850 197.968, 290.500 197.644 C 294.687 196.820, 303.752 196.084, 315.500 195.613 C 341.729 194.563, 365.010 201.586, 390.820 218.335 C 396.494 222.017, 400.861 224.584, 400.524 224.039 C 398.975 221.533, 387.270 213.555, 377.743 208.513 C 355.531 196.757, 334.162 192.291, 309 194.147 M 548.667 197.667 C 548.300 198.033, 548.014 199.046, 548.030 199.917 C 548.055 201.217, 548.251 201.174, 549.122 199.675 C 550.199 197.823, 549.887 196.447, 548.667 197.667 M 545.542 209.170 C 543.979 214.435, 544.206 217.234, 545.845 212.889 C 547.169 209.376, 548.242 204, 547.618 204 C 547.321 204, 546.387 206.327, 545.542 209.170 M 257.204 209.548 C 224.152 229.506, 202.617 261.345, 196.592 299.163 C 195.125 308.368, 194.759 325.769, 195.901 332 C 196.506 335.300, 196.720 332.768, 196.704 322.500 C 196.678 305.331, 197.434 298.248, 200.601 286 C 205.674 266.374, 217.783 245.979, 233.891 229.930 C 243.243 220.612, 247.892 217.041, 264.641 206.309 C 265.663 205.654, 266.050 205.123, 265.500 205.130 C 264.950 205.137, 261.217 207.125, 257.204 209.548 M 299 218.893 C 260.176 227.497, 231.381 255.082, 220.780 293.825 C 217.670 305.188, 217.672 328.981, 220.783 341.349 C 225.507 360.125, 234.284 375.581, 247.873 389.052 C 261.661 402.721, 277.291 411.209, 297.793 416.161 C 308.948 418.855, 328.816 419.060, 340.224 416.597 C 371.003 409.953, 396.536 389.794, 410.010 361.500 C 417.791 345.158, 419.462 337.470, 419.462 318 C 419.462 303.756, 419.141 300.338, 417.111 293 C 408.761 262.809, 389.185 239.361, 361.546 226.446 C 347.952 220.093, 338.401 217.943, 321.500 217.432 C 310.294 217.093, 305.803 217.385, 299 218.893 M 312.385 222.439 C 312.081 223.231, 312.291 224.693, 312.852 225.689 C 313.700 227.196, 313.857 226.955, 313.783 224.250 C 313.688 220.734, 313.255 220.173, 312.385 222.439 M 327 223 C 327 223.550, 327.450 224, 328 224 C 328.550 224, 329 223.550, 329 223 C 329 222.450, 328.550 222, 328 222 C 327.450 222, 327 222.450, 327 223 M 298 226.500 C 298 227.875, 298.388 229, 298.861 229 C 299.335 229, 299.508 227.875, 299.245 226.500 C 298.982 225.125, 298.594 224, 298.383 224 C 298.173 224, 298 225.125, 298 226.500 M 341.158 227.866 C 339.760 232.534, 339.703 234, 340.921 234 C 341.427 234, 342.135 232.537, 342.495 230.750 C 342.855 228.963, 343.371 226.713, 343.642 225.750 C 343.913 224.787, 343.726 224, 343.226 224 C 342.726 224, 341.795 225.740, 341.158 227.866 M 327.079 226.583 C 327.127 227.748, 327.364 227.985, 327.683 227.188 C 327.972 226.466, 327.936 225.603, 327.604 225.271 C 327.272 224.939, 327.036 225.529, 327.079 226.583 M 283.571 230 C 283.930 231.375, 284.624 232.928, 285.112 233.450 C 286.540 234.977, 286.102 232.786, 284.423 230 L 282.917 227.500 283.571 230 M 356.028 231.426 C 354.542 235.335, 354.836 235.950, 356.618 232.662 C 357.464 231.100, 357.909 229.576, 357.606 229.273 C 357.304 228.970, 356.593 229.939, 356.028 231.426 M 269 235.052 C 269 236.563, 273.357 243.983, 274.250 243.992 C 275.708 244.007, 274.969 241.419, 272.464 237.732 C 269.851 233.887, 269 233.228, 269 235.052 M 369.143 238.143 C 368.438 239.271, 368.081 240.414, 368.350 240.683 C 368.618 240.952, 369.361 240.194, 370 239 C 371.511 236.176, 370.809 235.474, 369.143 238.143 M 258.500 246 C 259.495 247.100, 260.469 248, 260.663 248 C 260.858 248, 260.455 247.100, 259.768 246 C 259.081 244.900, 258.107 244, 257.604 244 C 257.102 244, 257.505 244.900, 258.500 246 M 419.005 244.200 C 419.002 244.585, 420.339 246.884, 421.976 249.309 C 428.554 259.056, 435.552 276.820, 438.899 292.266 C 441.339 303.531, 441.927 327.245, 440.032 338.023 C 437.069 354.873, 429.778 372.564, 419.330 388.254 C 412.787 398.079, 399.289 412.336, 392.192 416.918 C 389.611 418.584, 386.973 420.393, 386.330 420.939 C 385.686 421.484, 379.611 424.602, 372.830 427.868 C 346.057 440.760, 326.935 443.493, 298.504 438.488 C 281.639 435.519, 255.707 425.024, 246.067 417.266 C 238.298 411.013, 227.649 400.343, 223.133 394.285 C 216.700 385.655, 208 372, 208 370.533 C 208 369.825, 207.325 368.685, 206.500 368 C 205.675 367.315, 205 365.937, 205 364.937 C 205 363.936, 204.585 362.861, 204.078 362.548 C 201.793 361.136, 205.634 371.310, 210.572 379.750 C 212.801 383.560, 212.874 384, 211.279 384.004 C 210.095 384.006, 210.643 384.704, 212.918 386.091 C 215.590 387.720, 216.026 388.370, 214.918 389.072 C 214.029 389.634, 213.941 389.975, 214.683 389.985 C 215.333 389.993, 216.151 390.900, 216.500 392 C 216.849 393.100, 217.768 394, 218.542 394 C 220.136 394, 223 398.966, 223 401.731 C 223 402.860, 224.189 404.010, 226.100 404.732 C 227.805 405.375, 229.028 406.415, 228.819 407.043 C 228.610 407.671, 229.915 409.750, 231.719 411.664 C 233.524 413.577, 235 415.512, 235 415.963 C 235 416.414, 236.109 417.062, 237.465 417.402 C 239.053 417.800, 239.736 418.524, 239.386 419.437 C 238.983 420.486, 239.448 420.720, 241.171 420.340 C 242.878 419.964, 243.131 420.088, 242.118 420.804 C 240.993 421.599, 241.089 421.893, 242.631 422.383 C 243.674 422.714, 246.736 425.013, 249.437 427.492 C 252.137 429.972, 255.183 432, 256.205 432 C 257.227 432, 258.310 432.645, 258.613 433.433 C 259.228 435.036, 268.628 439.811, 277 442.773 C 287.078 446.338, 298.882 448.130, 312.500 448.160 C 325.851 448.190, 344 445.813, 344 444.034 C 344 443.297, 349.726 442.118, 354.193 441.936 C 355.133 441.898, 355.670 441.304, 355.400 440.600 C 355.133 439.903, 355.589 439.333, 356.413 439.333 C 357.237 439.333, 357.653 439.753, 357.335 440.266 C 357.018 440.780, 357.713 440.689, 358.879 440.065 C 360.046 439.440, 361 438.495, 361 437.965 C 361 437.434, 361.788 436.998, 362.750 436.996 C 363.712 436.994, 365.955 436.105, 367.733 435.021 C 369.511 433.937, 371.649 433.312, 372.483 433.632 C 373.317 433.952, 374 433.716, 374 433.107 C 374 432.498, 374.575 432, 375.277 432 C 375.980 432, 377.713 430.762, 379.130 429.250 C 382.472 425.680, 385.892 422.969, 390.105 420.551 C 391.972 419.479, 394.625 417.562, 396 416.290 C 397.375 415.018, 399.265 413.735, 400.199 413.438 C 401.180 413.126, 401.663 412.285, 401.342 411.449 C 401.036 410.652, 401.250 410, 401.817 410 C 404.008 410, 416.123 396.506, 422.407 387.066 C 426.033 381.619, 429 376.947, 429 376.683 C 429 376.420, 430.140 374.246, 431.533 371.852 C 433.750 368.043, 433.982 367.874, 433.395 370.500 C 433.025 372.150, 432.474 373.935, 432.169 374.466 C 431.530 375.580, 431.105 381.251, 430.839 392.188 C 430.711 397.489, 431.081 400.393, 432.033 401.539 C 432.791 402.454, 433.521 403.943, 433.654 404.850 C 434.291 409.192, 443.866 411.747, 449.067 408.964 C 451.105 407.873, 454.055 401.895, 453.921 399.128 C 453.878 398.233, 453.369 398.850, 452.791 400.500 C 451.472 404.263, 449.131 407, 447.232 407 C 445.431 407, 445.773 404.668, 449.314 392.795 C 455.073 373.478, 469.320 317.075, 470.008 310.862 C 470.798 303.740, 471.581 301.623, 473.085 302.553 C 473.606 302.875, 473.774 303.557, 473.457 304.069 C 473.141 304.581, 473.359 305, 473.941 305 C 474.523 305, 475 304.550, 475 304 C 475 301.581, 477.007 303.283, 477.063 305.750 C 477.126 308.478, 477.134 308.481, 478.069 306.148 C 479.334 302.991, 477.139 298.434, 474.472 298.678 C 473.403 298.776, 472.201 298.326, 471.801 297.678 C 471.379 296.995, 469.062 296.574, 466.286 296.675 C 462.121 296.828, 461.086 297.328, 458.309 300.524 C 455.330 303.953, 448.748 317.984, 447.351 323.886 C 446.015 329.529, 442.058 340.325, 442.545 337 C 443.691 329.165, 443.669 310.921, 442.502 302 C 440.441 286.246, 435.869 272.320, 427.564 256.500 C 424.138 249.973, 419.016 242.613, 419.005 244.200 M 333.139 247.750 C 330.398 250.054, 328.852 257.071, 330.402 260.179 C 331.223 261.826, 332.421 262.500, 334.530 262.500 C 336.925 262.500, 337.839 261.822, 339.248 259 C 341.421 254.651, 341.500 249.643, 339.429 247.571 C 337.395 245.538, 335.714 245.586, 333.139 247.750 M 380.500 248 C 379.505 249.100, 379.102 250, 379.604 250 C 380.107 250, 381.081 249.100, 381.768 248 C 382.455 246.900, 382.858 246, 382.663 246 C 382.469 246, 381.495 246.900, 380.500 248 M 333.972 249.533 C 333.273 250.376, 332.485 253.301, 332.223 256.033 C 331.783 260.615, 331.914 261, 333.924 261 C 337.795 261, 340.911 249.947, 337.418 248.607 C 335.326 247.804, 335.431 247.776, 333.972 249.533 M 287.206 251.167 C 285.443 252.283, 284 253.581, 284 254.051 C 284 254.841, 286.016 259.957, 286.706 260.921 C 286.872 261.152, 288.061 260.352, 289.348 259.142 C 291.972 256.677, 294.579 257.097, 295.545 260.140 C 296.518 263.207, 294.211 265.205, 290.610 264.414 C 287.853 263.809, 287.677 263.906, 288.892 265.370 C 290.719 267.571, 293.577 267.423, 296 265 C 298.574 262.426, 298.541 259.541, 295.908 256.908 C 293.916 254.916, 292.745 254.849, 288.750 256.494 C 287.409 257.046, 287 256.721, 287 255.107 C 287 253.948, 287.364 253, 287.809 253 C 288.254 253, 289.447 252.394, 290.460 251.653 C 293.522 249.414, 290.652 248.985, 287.206 251.167 M 247.500 256 C 248.495 257.100, 249.775 258, 250.344 258 C 250.912 258, 250.411 257.100, 249.230 256 C 248.050 254.900, 246.770 254, 246.387 254 C 246.004 254, 246.505 254.900, 247.500 256 M 390.985 258.046 C 389.618 259.096, 388.950 259.951, 389.500 259.946 C 390.823 259.933, 394.478 257.144, 393.912 256.579 C 393.669 256.336, 392.352 256.996, 390.985 258.046 M 274.571 258.571 C 272.962 260.181, 272.393 264, 273.763 264 C 274.182 264, 274.970 262.988, 275.513 261.750 C 277.034 258.284, 279.548 258.859, 279.265 262.608 C 279.057 265.376, 279.288 265.668, 281.374 265.269 C 283.943 264.778, 285.370 266.871, 284.325 269.596 C 283.882 270.750, 282.921 271.034, 280.856 270.621 C 277.885 270.027, 276.823 271.611, 279.502 272.639 C 282.226 273.684, 285.943 272.074, 286.570 269.578 C 287.284 266.731, 285.523 263, 283.465 263 C 282.659 263, 282 262.190, 282 261.200 C 282 257.265, 277.478 255.665, 274.571 258.571 M 237.492 266.987 C 238.399 268.455, 242 270.219, 242 269.196 C 242 268.715, 240.846 267.795, 239.436 267.153 C 237.972 266.486, 237.138 266.415, 237.492 266.987 M 397.766 270.715 C 395.182 272.137, 393.301 273.679, 393.588 274.142 C 394.167 275.079, 401.481 271.649, 402.532 269.948 C 403.787 267.918, 402.466 268.131, 397.766 270.715 M 376 279.252 C 372.418 280.887, 372.437 280.826, 374.823 283.050 C 377.414 285.464, 377.513 286.344, 375.429 288.429 C 372.240 291.617, 367.892 288.939, 369.966 285.064 C 370.849 283.414, 370.776 283, 369.603 283 C 367.600 283, 366.649 286.475, 367.973 288.950 C 369.336 291.496, 373.170 292.515, 375.895 291.056 C 378.377 289.728, 379.720 285.320, 378.127 283.727 C 376.471 282.071, 376.751 281, 378.839 281 C 379.851 281, 381.203 282.150, 381.844 283.556 C 382.484 284.962, 383.476 285.824, 384.047 285.471 C 385.396 284.637, 381.928 278.580, 379.946 278.309 C 379.151 278.200, 377.375 278.624, 376 279.252 M 231 281 C 231.825 281.533, 233.175 281.969, 234 281.969 C 235.333 281.969, 235.333 281.862, 234 281 C 233.175 280.467, 231.825 280.031, 231 280.031 C 229.667 280.031, 229.667 280.138, 231 281 M 306.379 281.501 C 300.142 283.350, 297.833 284.908, 291.860 291.297 C 283.779 299.940, 280.790 307.508, 280.216 320.781 C 279.798 330.434, 279.922 331.289, 282.245 334.781 C 283.606 336.826, 285.653 340.075, 286.794 342 C 293.209 352.825, 307.341 359.333, 322.765 358.565 C 327.967 358.306, 330.302 357.495, 337.698 353.379 C 345.509 349.032, 346.857 347.846, 350.065 342.500 C 354.735 334.716, 355.913 331.185, 357.023 321.640 C 357.757 315.331, 357.648 313.220, 356.469 310.940 C 355.661 309.377, 355 306.934, 355 305.510 C 355 300.426, 348.949 291.590, 343.500 288.720 C 334.919 284.199, 328.885 281.902, 324.439 281.465 C 313.536 280.393, 310.091 280.400, 306.379 281.501 M 405.500 283.685 L 402.500 285.086 405.498 284.462 C 408.595 283.817, 409.638 283.262, 408.917 282.642 C 408.688 282.445, 407.150 282.914, 405.500 283.685 M 250.890 291.174 C 246.548 294.750, 248.570 299.060, 255.499 301 C 261.630 302.716, 265 301.313, 265 297.044 C 265 294.962, 264.248 293.553, 262.538 292.433 C 259.134 290.202, 252.889 289.527, 250.890 291.174 M 251.380 293.452 C 250.349 296.138, 251.695 297.679, 256.031 298.780 C 260.970 300.033, 263 299.494, 263 296.928 C 263 294.752, 260.947 293.525, 255.737 292.584 C 252.824 292.058, 251.840 292.254, 251.380 293.452 M 225.234 294.202 C 225.454 294.863, 227.766 295.947, 230.371 296.612 C 236.536 298.185, 236.167 296.220, 229.948 294.360 C 224.507 292.734, 224.747 292.742, 225.234 294.202 M 409 298 C 407.667 298.862, 407.667 298.963, 409 298.914 C 409.825 298.884, 411.400 298.473, 412.500 298 L 414.500 297.141 412.500 297.086 C 411.400 297.055, 409.825 297.467, 409 298 M 245.975 305.565 C 244.958 308.242, 246.161 312, 248.035 312 C 249.300 312, 249.266 310.666, 247.967 309.367 C 246.477 307.877, 247.886 305, 250.107 305 C 251.314 305, 252 305.703, 252 306.941 C 252 309.687, 253.666 310.385, 254.313 307.910 C 254.701 306.429, 255.511 305.935, 257.167 306.171 C 260.380 306.628, 260.770 309.911, 257.870 312.098 C 254.792 314.420, 256.200 315.754, 259.469 313.612 C 261.199 312.479, 262 311.050, 262 309.099 C 262 305.353, 259.778 303.594, 255.998 304.350 C 254.307 304.689, 253 304.525, 253 303.975 C 253 303.439, 251.639 303, 249.975 303 C 247.648 303, 246.725 303.592, 245.975 305.565 M 223.250 309.689 C 224.213 309.941, 225.787 309.941, 226.750 309.689 C 227.713 309.438, 226.925 309.232, 225 309.232 C 223.075 309.232, 222.287 309.438, 223.250 309.689 M 476.177 312.745 C 474.198 319.230, 472.853 325.186, 473.272 325.605 C 473.494 325.827, 474.657 322.341, 475.857 317.857 C 478.059 309.630, 478.300 305.792, 476.177 312.745 M 411.250 312.689 C 412.212 312.941, 413.788 312.941, 414.750 312.689 C 415.712 312.438, 414.925 312.232, 413 312.232 C 411.075 312.232, 410.288 312.438, 411.250 312.689 M 224.250 324.689 C 225.213 324.941, 226.787 324.941, 227.750 324.689 C 228.713 324.438, 227.925 324.232, 226 324.232 C 224.075 324.232, 223.287 324.438, 224.250 324.689 M 387.692 326.931 C 388.180 328.798, 388.008 328.812, 382.491 327.372 C 377.335 326.025, 374.762 326.095, 376.208 327.542 C 377.019 328.352, 391.107 332.227, 391.567 331.766 C 391.786 331.547, 391.424 329.935, 390.763 328.184 C 389.471 324.761, 386.844 323.689, 387.692 326.931 M 409.475 326.960 C 409.829 327.532, 411.291 328, 412.726 328 C 415.860 328, 415.498 327.521, 411.666 326.601 C 409.808 326.154, 409.054 326.278, 409.475 326.960 M 139.079 328.583 C 139.127 329.748, 139.364 329.985, 139.683 329.188 C 139.972 328.466, 139.936 327.603, 139.604 327.271 C 139.272 326.939, 139.036 327.529, 139.079 328.583 M 374.750 335.031 C 373.725 335.657, 373 337.312, 373 339.027 C 373 342.894, 376.794 345.372, 382.824 345.445 C 386.703 345.492, 387.594 345.127, 388.638 343.063 C 390.036 340.299, 389.077 337.647, 386.102 336.055 C 383.118 334.458, 376.646 333.874, 374.750 335.031 M 197.428 341.500 C 197.986 348.063, 199.981 357.252, 201.107 358.450 C 202.463 359.892, 202.137 357.557, 199.441 346.500 C 197.626 339.056, 197.111 337.778, 197.428 341.500 M 375 339.051 C 375 340.461, 376.126 341.573, 378.602 342.607 C 383.376 344.602, 386.415 344.101, 386.819 341.252 C 387.191 338.635, 383.966 337, 378.435 337 C 375.638 337, 375 337.381, 375 339.051 M 226 339.046 C 224.905 339.787, 225.309 339.880, 227.500 339.390 C 231.177 338.567, 231.975 337.995, 229.417 338.015 C 228.363 338.024, 226.825 338.487, 226 339.046 M 258.223 340.557 C 255.823 342.237, 255.388 344.988, 257.035 348.066 C 257.888 349.658, 257.739 350, 256.196 350 C 255.155 350, 253.803 348.862, 253.156 347.444 C 252.516 346.038, 251.559 345.155, 251.030 345.481 C 249.749 346.273, 252.978 353, 254.638 353 C 255.748 353, 260.743 351.141, 261.927 350.287 C 262.162 350.118, 261.375 349.066, 260.177 347.950 C 257.835 345.769, 257.624 345.093, 258.765 343.427 C 261.109 340.005, 265.754 342.010, 264.712 345.994 C 263.990 348.755, 265.655 349.513, 266.985 347.028 C 267.778 345.546, 267.752 344.395, 266.885 342.750 C 264.730 338.657, 261.942 337.951, 258.223 340.557 M 403 339.846 C 403 340.837, 408.962 342.982, 411.750 342.994 C 414.508 343.007, 412.771 341.180, 409.429 340.553 C 407.465 340.184, 405.215 339.636, 404.429 339.334 C 403.643 339.033, 403 339.263, 403 339.846 M 269 350.035 C 269 350.605, 269.779 352.259, 270.731 353.712 C 272.458 356.348, 272.456 356.352, 269.981 355.638 C 261.215 353.108, 258 353.990, 258 358.922 C 258 362.208, 259.659 364, 262.700 364 C 265.662 364, 265.703 362.239, 262.750 361.820 C 259.945 361.421, 259.044 357.304, 261.552 356.342 C 262.482 355.985, 265.472 356.494, 268.195 357.473 C 274.741 359.827, 276.040 358.623, 272.929 353.087 C 270.731 349.176, 269 347.832, 269 350.035 M 231 352.598 L 228.500 354.125 231 353.576 C 232.375 353.274, 233.838 353.021, 234.250 353.014 C 234.662 353.006, 235 352.550, 235 352 C 235 350.637, 233.955 350.793, 231 352.598 M 465 353.059 C 465 353.641, 465.450 353.840, 466 353.500 C 466.550 353.160, 467 352.684, 467 352.441 C 467 352.198, 466.550 352, 466 352 C 465.450 352, 465 352.477, 465 353.059 M 403.441 355.532 C 404.509 356.339, 406.084 356.984, 406.941 356.965 C 407.940 356.942, 407.602 356.416, 406 355.500 C 402.728 353.630, 400.955 353.652, 403.441 355.532 M 239 364.202 C 234.402 367.050, 234.562 366.896, 235.374 367.707 C 236.168 368.501, 245 363.972, 245 362.771 C 245 361.404, 242.588 361.979, 239 364.202 M 356.206 372 C 358.435 375.850, 360.552 379, 360.910 379 C 361.748 379, 364.114 372.780, 363.507 372.173 C 363.255 371.921, 362.397 372.256, 361.601 372.916 C 360.406 373.908, 359.686 373.321, 357.482 369.559 C 356.012 367.051, 354.212 365, 353.482 365 C 352.637 365, 353.628 367.547, 356.206 372 M 396.559 368.468 C 397.626 369.276, 399.175 369.935, 400 369.933 C 400.870 369.931, 400.450 369.329, 399 368.500 C 395.713 366.621, 394.089 366.600, 396.559 368.468 M 342.986 370.810 C 340.206 373.061, 340.015 377.800, 342.625 379.730 C 344.327 380.989, 345.840 381.022, 349.875 379.887 C 352.431 379.168, 352.177 381.962, 349.579 383.146 C 348.160 383.792, 347 384.924, 347 385.661 C 347 387.415, 347.255 387.372, 351.420 384.914 L 354.955 382.829 353.446 379.216 C 351.427 374.384, 351.290 374.311, 348.950 376.823 C 346.567 379.381, 345.671 379.514, 344.040 377.548 C 342.156 375.278, 343.206 372.520, 346.018 372.349 C 350.376 372.083, 350.536 371.964, 348.559 370.468 C 346.085 368.597, 345.690 368.621, 342.986 370.810 M 293.609 373.534 C 291.559 375.584, 290.108 381.115, 290.746 384.450 C 291.354 387.632, 295.164 389.518, 297.960 388.021 C 301.409 386.175, 303.398 375.798, 300.800 373.200 C 299.130 371.530, 295.441 371.701, 293.609 373.534 M 295.035 375.458 C 294.331 376.307, 293.526 379.026, 293.247 381.501 C 292.795 385.507, 292.960 386, 294.748 386 C 297.687 386, 299.324 383.449, 299.418 378.726 C 299.508 374.170, 297.405 372.602, 295.035 375.458 M 305.545 374.927 C 304.852 376.048, 305.547 376.492, 309.500 377.452 L 312.500 378.180 308.761 380.108 C 303.832 382.650, 301.486 386.172, 302.928 388.865 C 304.843 392.444, 311.081 392.838, 312.376 389.462 C 313.019 387.786, 310.914 387.486, 309.367 389.033 C 307.724 390.676, 304.855 389.019, 305.197 386.623 C 305.395 385.235, 307.317 383.526, 310.750 381.687 C 313.637 380.139, 316 378.440, 316 377.912 C 316 376.156, 306.468 373.434, 305.545 374.927 M 245.985 378.046 C 244.618 379.096, 243.950 379.951, 244.500 379.946 C 245.823 379.933, 249.478 377.144, 248.912 376.579 C 248.669 376.336, 247.352 376.996, 245.985 378.046 M 387 378.723 C 387 379.981, 389.858 382.475, 390.530 381.803 C 390.795 381.538, 390.110 380.504, 389.006 379.506 C 387.903 378.507, 387 378.155, 387 378.723 M 256.500 388 C 255.498 389.107, 254.904 390.237, 255.179 390.512 C 255.454 390.787, 256.498 390.107, 257.500 389 C 258.502 387.893, 259.096 386.763, 258.821 386.488 C 258.546 386.213, 257.502 386.893, 256.500 388 M 456.079 387.583 C 456.127 388.748, 456.364 388.985, 456.683 388.188 C 456.972 387.466, 456.936 386.603, 456.604 386.271 C 456.272 385.939, 456.036 386.529, 456.079 387.583 M 377.703 390.469 C 380.060 393.706, 381.526 393.733, 379.408 390.500 C 378.507 389.125, 377.351 388, 376.838 388 C 376.326 388, 376.715 389.111, 377.703 390.469 M 455.079 391.583 C 455.127 392.748, 455.364 392.985, 455.683 392.188 C 455.972 391.466, 455.936 390.603, 455.604 390.271 C 455.272 389.939, 455.036 390.529, 455.079 391.583 M 362.710 392.624 C 361.974 393.360, 365.485 400.564, 367.052 401.532 C 369.192 402.854, 368.983 401.222, 366.429 396.652 C 363.646 391.672, 363.653 391.680, 362.710 392.624 M 454.079 395.583 C 454.127 396.748, 454.364 396.985, 454.683 396.188 C 454.972 395.466, 454.936 394.603, 454.604 394.271 C 454.272 393.939, 454.036 394.529, 454.079 395.583 M 268.241 396.986 C 267.558 398.079, 267 399.231, 267 399.545 C 267 400.606, 268.980 398.905, 270.030 396.944 C 271.399 394.387, 269.841 394.423, 268.241 396.986 M 281.626 402.710 C 281.281 403.695, 280.737 405.063, 280.416 405.750 C 280.096 406.438, 280.272 407, 280.808 407 C 281.344 407, 282.079 405.822, 282.440 404.382 C 283.199 401.359, 282.560 400.047, 281.626 402.710 M 295.505 405.250 C 295.145 407.038, 294.629 409.288, 294.358 410.250 C 294.087 411.212, 294.274 412, 294.774 412 C 295.642 412, 298 405.518, 298 403.134 C 298 400.617, 296.116 402.215, 295.505 405.250 M 352 403.309 C 352 404.029, 352.669 405.491, 353.486 406.559 C 354.846 408.335, 354.880 408.223, 353.888 405.250 C 352.756 401.857, 352 401.079, 352 403.309 M 338.601 409.666 C 339.521 413.498, 340 413.860, 340 410.726 C 340 409.291, 339.532 407.829, 338.960 407.475 C 338.278 407.054, 338.154 407.808, 338.601 409.666 M 309.822 410.500 C 309.177 413.496, 309.489 414.844, 310.575 413.758 C 310.892 413.442, 310.997 411.904, 310.809 410.341 L 310.467 407.500 309.822 410.500 M 324.063 411.950 C 324.020 414.318, 324.323 415.077, 325.030 414.370 C 325.713 413.687, 325.734 412.522, 325.094 410.920 C 324.185 408.646, 324.123 408.708, 324.063 411.950" stroke="none" fill="black" fill-rule="evenodd"/>
</svg>